<svg width="696.8375px" height="122px" xmlns="http://www.w3.org/2000/svg" viewBox="-98.41874999999999 14 696.8375 122" style="background: none;" preserveAspectRatio="xMidYMid"><defs><filter id="editing-offset"><feFlood flood-color="#f00" flood-opacity="0.5" result="c1"></feFlood><feFlood flood-color="#0f0" flood-opacity="0.5" result="c2"></feFlood><feFlood flood-color="#0000ff" flood-opacity="0.5" result="c3"></feFlood><feComposite operator="in" in="c1" in2="SourceAlpha" result="text-c1"></feComposite><feComposite operator="in" in="c2" in2="SourceAlpha" result="text-c2"></feComposite><feComposite operator="in" in="c3" in2="SourceAlpha" result="text-c3"></feComposite><feOffset in="text-c1" dx="-10" dy="0" result="text1"></feOffset><feOffset in="text-c2" dx="10" dy="0" result="text2"></feOffset><feOffset in="text-c3" dx="0" dy="0" result="text3"></feOffset><feMerge><feMergeNode in="text1"></feMergeNode><feMergeNode in="text2"></feMergeNode><feMergeNode in="text3"></feMergeNode></feMerge></filter></defs><g filter="url(#editing-offset)"><g transform="translate(0.0149766206741333, 107.00000381469727)"><path d="M34.50-13.25L34.50-13.25L34.50-13.25Q36.16-12.03 36.16-9.44L36.16-9.44L36.16-9.44Q36.16-6.85 35.04-5.02L35.04-5.02L35.04-5.02Q33.92-3.20 31.74-1.79L31.74-1.79L31.74-1.79Q27.07 1.22 18.91 1.22L18.91 1.22L18.91 1.22Q10.75 1.22 6.30-3.04L6.30-3.04L6.30-3.04Q1.86-7.30 1.86-14.85L1.86-14.85L1.86-14.85Q1.86-25.54 7.42-33.66L7.42-33.66L7.42-33.66Q11.65-39.68 19.20-42.24L19.20-42.24L19.20-42.24Q23.10-43.52 26.94-43.52L26.94-43.52L26.94-43.52Q30.78-43.52 33.15-43.01L33.15-43.01L33.15-43.01Q35.52-42.50 37.31-41.47L37.31-41.47L37.31-41.47Q41.22-39.23 41.22-35.65L41.22-35.65L41.22-35.65Q41.22-32.38 38.14-29.95L38.14-29.95L38.14-29.95Q35.33-27.78 33.02-27.78L33.02-27.78L33.02-27.78Q30.72-27.78 29.76-28.10L29.76-28.10L29.76-28.10Q30.02-30.40 30.02-31.90L30.02-31.90L30.02-31.90Q30.02-33.41 29.95-34.50L29.95-34.50L29.95-34.50Q29.89-35.58 29.57-36.61L29.57-36.61L29.57-36.61Q28.93-38.98 26.98-38.98L26.98-38.98L26.98-38.98Q25.02-38.98 23.07-37.15L23.07-37.15L23.07-37.15Q21.12-35.33 19.46-32.26L19.46-32.26L19.46-32.26Q15.68-25.28 15.68-17.02L15.68-17.02L15.68-17.02Q15.68-13.06 17.92-10.78L17.92-10.78L17.92-10.78Q20.16-8.51 24.96-8.51L24.96-8.51L24.96-8.51Q28.54-8.51 31.94-10.88L31.94-10.88L31.94-10.88Q33.41-11.90 34.50-13.25ZM55.42 1.28L55.42 1.28L55.42 1.28Q41.34 1.28 41.34-11.97L41.34-11.97L41.34-11.97Q41.34-21.38 46.53-27.46L46.53-27.46L46.53-27.46Q52.03-33.92 61.57-33.92L61.57-33.92L61.57-33.92Q68.48-33.92 72-30.72L72-30.72L72-30.72Q75.52-27.52 75.52-20.80L75.52-20.80L75.52-20.80Q75.52-10.56 70.02-4.61L70.02-4.61L70.02-4.61Q64.64 1.28 55.42 1.28ZM57.09-26.56L57.09-26.56L57.09-26.56Q56.32-24.83 55.71-22.24L55.71-22.24L55.71-22.24Q55.10-19.65 54.34-15.55L54.34-15.55L54.34-15.55Q53.57-11.46 53.57-6.40L53.57-6.40L53.57-6.40Q53.57-4.74 54.11-3.65L54.11-3.65L54.11-3.65Q54.66-2.56 56.13-2.56L56.13-2.56L56.13-2.56Q57.60-2.56 58.53-3.26L58.53-3.26L58.53-3.26Q59.46-3.97 60.16-5.63L60.16-5.63L60.16-5.63Q61.44-8.58 62.46-14.05L62.46-14.05L62.46-14.05Q63.49-19.52 63.58-21.89L63.58-21.89L63.58-21.89Q63.68-24.26 63.68-26.02L63.68-26.02L63.68-26.02Q63.68-27.78 63.17-28.93L63.17-28.93L63.17-28.93Q62.66-30.08 61.22-30.08L61.22-30.08L61.22-30.08Q59.78-30.08 58.82-29.18L58.82-29.18L58.82-29.18Q57.86-28.29 57.09-26.56ZM94.59-3.52L94.59-3.52L94.59-3.52Q92.61 1.28 86.27 1.28L86.27 1.28L86.27 1.28Q83.07 1.28 81.02-0.96L81.02-0.96L81.02-0.96Q79.36-2.82 79.36-4.93L79.36-4.93L79.36-4.93Q79.36-9.73 81.60-20.22L81.60-20.22L86.27-44.80L99.26-46.08L93.06-13.70L93.06-13.70Q91.97-8.96 91.97-7.30L91.97-7.30L91.97-7.30Q91.97-3.65 94.59-3.52ZM113.98 1.28L113.98 1.28L113.98 1.28Q99.90 1.28 99.90-11.97L99.90-11.97L99.90-11.97Q99.90-21.38 105.09-27.46L105.09-27.46L105.09-27.46Q110.59-33.92 120.13-33.92L120.13-33.92L120.13-33.92Q127.04-33.92 130.56-30.72L130.56-30.72L130.56-30.72Q134.08-27.52 134.08-20.80L134.08-20.80L134.08-20.80Q134.08-10.56 128.58-4.61L128.58-4.61L128.58-4.61Q123.20 1.28 113.98 1.28ZM115.65-26.56L115.65-26.56L115.65-26.56Q114.88-24.83 114.27-22.24L114.27-22.24L114.27-22.24Q113.66-19.65 112.90-15.55L112.90-15.55L112.90-15.55Q112.13-11.46 112.13-6.40L112.13-6.40L112.13-6.40Q112.13-4.74 112.67-3.65L112.67-3.65L112.67-3.65Q113.22-2.56 114.69-2.56L114.69-2.56L114.69-2.56Q116.16-2.56 117.09-3.26L117.09-3.26L117.09-3.26Q118.02-3.97 118.72-5.63L118.72-5.63L118.72-5.63Q120-8.58 121.02-14.05L121.02-14.05L121.02-14.05Q122.05-19.52 122.14-21.89L122.14-21.89L122.14-21.89Q122.24-24.26 122.24-26.02L122.24-26.02L122.24-26.02Q122.24-27.78 121.73-28.93L121.73-28.93L121.73-28.93Q121.22-30.08 119.78-30.08L119.78-30.08L119.78-30.08Q118.34-30.08 117.38-29.18L117.38-29.18L117.38-29.18Q116.42-28.29 115.65-26.56ZM157.89-17.98L157.89-17.98L157.89-17.98Q160.19-22.08 160.19-26.24L160.19-26.24L160.19-26.24Q160.19-28.99 158.21-28.99L158.21-28.99L158.21-28.99Q156.67-28.99 155.07-26.37L155.07-26.37L155.07-26.37Q153.41-23.74 152.90-20.35L152.90-20.35L149.57 0L136.32 1.28L142.85-32.64L153.41-33.92L152.26-27.46L152.26-27.46Q155.39-33.92 162.43-33.92L162.43-33.92L162.43-33.92Q166.14-33.92 168.16-32L168.16-32L168.16-32Q170.18-30.08 170.18-26.14L170.18-26.14L170.18-26.14Q170.18-22.21 167.58-19.71L167.58-19.71L167.58-19.71Q164.99-17.22 160.58-17.22L160.58-17.22L160.58-17.22Q158.66-17.22 157.89-17.98ZM209.34-29.57L209.34-29.57L209.34-29.57Q210.30-31.49 210.30-33.28L210.30-33.28L210.30-33.28Q210.30-35.07 210.11-36.06L210.11-36.06L210.11-36.06Q209.92-37.06 209.47-37.82L209.47-37.82L209.47-37.82Q208.51-39.49 206.59-39.49L206.59-39.49L206.59-39.49Q204.22-39.49 202.30-37.76L202.30-37.76L202.30-37.76Q200.26-35.97 200.26-33.15L200.26-33.15L200.26-33.15Q200.26-31.36 201.50-29.98L201.50-29.98L201.50-29.98Q202.75-28.61 204.67-27.33L204.67-27.33L204.67-27.33Q206.59-26.05 208.77-24.77L208.77-24.77L208.77-24.77Q210.94-23.49 212.86-21.95L212.86-21.95L212.86-21.95Q217.28-18.43 217.28-13.70L217.28-13.70L217.28-13.70Q217.28-10.50 215.58-7.78L215.58-7.78L215.58-7.78Q213.89-5.06 211.07-3.07L211.07-3.07L211.07-3.07Q204.93 1.28 196.80 1.28L196.80 1.28L196.80 1.28Q190.21 1.28 186.82-0.86L186.82-0.86L186.82-0.86Q183.42-3.01 183.42-6.27L183.42-6.27L183.42-6.27Q183.42-12.10 187.97-13.57L187.97-13.57L187.97-13.57Q189.25-14.02 191.20-14.02L191.20-14.02L191.20-14.02Q193.15-14.02 195.39-13.18L195.39-13.18L195.39-13.18Q194.37-10.56 194.37-8.19L194.37-8.19L194.37-8.19Q194.37-3.07 198.02-3.07L198.02-3.07L198.02-3.07Q200.38-3.07 202.34-4.80L202.34-4.80L202.34-4.80Q204.29-6.53 204.29-8.48L204.29-8.48L204.29-8.48Q204.29-10.43 203.04-11.84L203.04-11.84L203.04-11.84Q201.79-13.25 199.94-14.37L199.94-14.37L199.94-14.37Q198.08-15.49 195.94-16.58L195.94-16.58L195.94-16.58Q193.79-17.66 191.94-19.20L191.94-19.20L191.94-19.20Q187.58-22.72 187.58-28.35L187.58-28.35L187.58-28.35Q187.58-32 189.38-34.85L189.38-34.85L189.38-34.85Q191.17-37.70 194.05-39.62L194.05-39.62L194.05-39.62Q199.81-43.52 206.88-43.52L206.88-43.52L206.88-43.52Q213.95-43.52 217.38-41.41L217.38-41.41L217.38-41.41Q220.80-39.30 220.80-35.71L220.80-35.71L220.80-35.71Q220.80-32.58 218.37-30.59L218.37-30.59L218.37-30.59Q216.26-28.93 213.70-28.93L213.70-28.93L213.70-28.93Q211.14-28.93 209.34-29.57ZM247.10-29.57L247.10-29.57L247.10-29.57Q248.06-31.49 248.06-33.28L248.06-33.28L248.06-33.28Q248.06-35.07 247.87-36.06L247.87-36.06L247.87-36.06Q247.68-37.06 247.23-37.82L247.23-37.82L247.23-37.82Q246.27-39.49 244.35-39.49L244.35-39.49L244.35-39.49Q241.98-39.49 240.06-37.76L240.06-37.76L240.06-37.76Q238.02-35.97 238.02-33.15L238.02-33.15L238.02-33.15Q238.02-31.36 239.26-29.98L239.26-29.98L239.26-29.98Q240.51-28.61 242.43-27.33L242.43-27.33L242.43-27.33Q244.35-26.05 246.53-24.77L246.53-24.77L246.53-24.77Q248.70-23.49 250.62-21.95L250.62-21.95L250.62-21.95Q255.04-18.43 255.04-13.70L255.04-13.70L255.04-13.70Q255.04-10.50 253.34-7.78L253.34-7.78L253.34-7.78Q251.65-5.06 248.83-3.07L248.83-3.07L248.83-3.07Q242.69 1.28 234.56 1.28L234.56 1.28L234.56 1.28Q227.97 1.28 224.58-0.86L224.58-0.86L224.58-0.86Q221.18-3.01 221.18-6.27L221.18-6.27L221.18-6.27Q221.18-12.10 225.73-13.57L225.73-13.57L225.73-13.57Q227.01-14.02 228.96-14.02L228.96-14.02L228.96-14.02Q230.91-14.02 233.15-13.18L233.15-13.18L233.15-13.18Q232.13-10.56 232.13-8.19L232.13-8.19L232.13-8.19Q232.13-3.07 235.78-3.07L235.78-3.07L235.78-3.07Q238.14-3.07 240.10-4.80L240.10-4.80L240.10-4.80Q242.05-6.53 242.05-8.48L242.05-8.48L242.05-8.48Q242.05-10.43 240.80-11.84L240.80-11.84L240.80-11.84Q239.55-13.25 237.70-14.37L237.70-14.37L237.70-14.37Q235.84-15.49 233.70-16.58L233.70-16.58L233.70-16.58Q231.55-17.66 229.70-19.20L229.70-19.20L229.70-19.20Q225.34-22.72 225.34-28.35L225.34-28.35L225.34-28.35Q225.34-32 227.14-34.85L227.14-34.85L227.14-34.85Q228.93-37.70 231.81-39.62L231.81-39.62L231.81-39.62Q237.57-43.52 244.64-43.52L244.64-43.52L244.64-43.52Q251.71-43.52 255.14-41.41L255.14-41.41L255.14-41.41Q258.56-39.30 258.56-35.71L258.56-35.71L258.56-35.71Q258.56-32.58 256.13-30.59L256.13-30.59L256.13-30.59Q254.02-28.93 251.46-28.93L251.46-28.93L251.46-28.93Q248.90-28.93 247.10-29.57ZM283.78-4.80L283.78-4.80L283.78-4.80Q283.78-9.28 285.57-18.24L285.57-18.24L276.10-18.24L272.58 0L259.20 0L267.33-42.24L280.83-42.24L277.12-23.36L286.59-23.36L290.11-42.24L303.62-42.24L303.62-42.24Q302.72-37.50 301.57-32.19L301.57-32.19L299.39-21.76L299.39-21.76Q296.96-9.60 296.96-4.29L296.96-4.29L296.96-4.29Q296.96-2.11 297.66-0.90L297.66-0.90L297.66-0.90Q294.46 1.28 290.72 1.28L290.72 1.28L290.72 1.28Q286.98 1.28 285.38-0.51L285.38-0.51L285.38-0.51Q283.78-2.30 283.78-4.80ZM320.70-10.37L320.70-10.37L320.70-10.37Q318.66-11.84 318.66-14.66L318.66-14.66L318.66-14.66Q318.66-16.19 319.42-17.44L319.42-17.44L319.42-17.44Q320.19-18.69 321.73-18.88L321.73-18.88L334.34-18.88L334.34-18.88Q336.45-18.88 337.09-20.16L337.09-20.16L337.09-20.16Q338.11-19.58 338.56-18.37L338.56-18.37L338.56-18.37Q339.01-17.15 339.01-15.87L339.01-15.87L339.01-15.87Q339.01-14.59 338.02-13.34L338.02-13.34L338.02-13.34Q337.02-12.10 335.55-11.97L335.55-11.97L323.84-11.97L323.84-11.97Q322.50-11.97 321.86-11.55L321.86-11.55L321.86-11.55Q321.22-11.14 320.70-10.37ZM359.81 5.79L359.81 5.79L359.81 5.79Q358.14 2.56 357.18-1.70L357.18-1.70L357.18-1.70Q356.22-5.95 356.22-10.75L356.22-10.75L356.22-10.75Q356.22-15.55 357.15-20.48L357.15-20.48L357.15-20.48Q358.08-25.41 359.74-29.89L359.74-29.89L359.74-29.89Q361.41-34.37 363.65-38.27L363.65-38.27L363.65-38.27Q365.89-42.18 368.45-45.06L368.45-45.06L368.45-45.06Q374.02-51.20 379.52-51.20L379.52-51.20L379.52-51.20Q381.89-51.20 382.78-49.92L382.78-49.92L382.78-49.92Q369.41-40.64 365.76-18.82L365.76-18.82L365.76-18.82Q364.61-11.71 364.61-3.58L364.61-3.58L364.61-3.58Q364.61 1.09 365.98 4.64L365.98 4.64L365.98 4.64Q367.36 8.19 370.50 11.52L370.50 11.52L370.50 11.52Q370.11 12.80 367.94 12.80L367.94 12.80L367.94 12.80Q365.76 12.80 363.62 10.91L363.62 10.91L363.62 10.91Q361.47 9.02 359.81 5.79ZM406.59-26.62L406.59-26.62L406.59-26.62Q406.59-23.94 404.35-22.27L404.35-22.27L404.35-22.27Q402.11-20.61 398.46-20.61L398.46-20.61L398.46-20.61Q396.93-20.61 396.03-21.06L396.03-21.06L396.03-21.06Q396.74-22.72 396.96-24.80L396.96-24.80L396.96-24.80Q397.18-26.88 397.18-27.46L397.18-27.46L397.18-27.46Q397.18-30.14 395.33-30.14L395.33-30.14L395.33-30.14Q394.05-30.14 392.61-28.54L392.61-28.54L392.61-28.54Q391.17-26.94 389.95-24.45L389.95-24.45L389.95-24.45Q387.26-18.69 387.26-12.86L387.26-12.86L387.26-12.86Q387.26-9.66 388.48-8.22L388.48-8.22L388.48-8.22Q389.70-6.78 392.38-6.78L392.38-6.78L392.38-6.78Q396.10-6.78 399.04-9.86L399.04-9.86L399.04-9.86Q399.87-10.82 400.32-11.90L400.32-11.90L400.32-11.90Q402.75-10.62 402.75-7.10L402.75-7.10L402.75-7.10Q402.75-3.52 398.78-1.15L398.78-1.15L398.78-1.15Q394.69 1.28 388.16 1.28L388.16 1.28L388.16 1.28Q375.17 1.28 375.17-12.48L375.17-12.48L375.17-12.48Q375.17-22.53 380.86-28.29L380.86-28.29L380.86-28.29Q386.37-33.92 396.48-33.92L396.48-33.92L396.48-33.92Q406.59-33.92 406.59-26.62ZM427.46-22.46L427.46-22.46L427.46-22.46Q428.35-24.83 428.35-26.88L428.35-26.88L428.35-26.88Q428.35-30.66 425.28-30.66L425.28-30.66L425.28-30.66Q423.68-30.66 422.37-29.22L422.37-29.22L422.37-29.22Q421.06-27.78 421.06-25.98L421.06-25.98L421.06-25.98Q421.06-24.70 422.08-23.68L422.08-23.68L422.08-23.68Q423.55-22.27 427.33-19.97L427.33-19.97L427.33-19.97Q431.10-17.66 432.54-15.78L432.54-15.78L432.54-15.78Q433.98-13.89 433.98-11.30L433.98-11.30L433.98-11.30Q433.98-8.70 432.74-6.34L432.74-6.34L432.74-6.34Q431.49-3.97 429.25-2.30L429.25-2.30L429.25-2.30Q424.45 1.28 416.77 1.28L416.77 1.28L416.77 1.28Q412.61 1.28 409.41-0.90L409.41-0.90L409.41-0.90Q406.21-3.01 406.21-5.50L406.21-5.50L406.21-5.50Q406.21-8 408.03-9.47L408.03-9.47L408.03-9.47Q409.86-10.94 412.54-10.94L412.54-10.94L412.54-10.94Q415.23-10.94 416.90-9.92L416.90-9.92L416.90-9.92Q416.06-7.81 416.06-6.40L416.06-6.40L416.06-6.40Q416.06-2.18 419.65-2.18L419.65-2.18L419.65-2.18Q421.18-2.18 422.21-3.14L422.21-3.14L422.21-3.14Q423.23-4.10 423.23-5.76L423.23-5.76L423.23-5.76Q423.23-9.02 417.73-12.48L417.73-12.48L417.73-12.48Q413.25-15.42 412.22-16.58L412.22-16.58L412.22-16.58Q410.50-18.62 410.50-21.18L410.50-21.18L410.50-21.18Q410.50-23.74 411.71-26.18L411.71-26.18L411.71-26.18Q412.93-28.61 415.17-30.34L415.17-30.34L415.17-30.34Q419.84-33.92 427.97-33.92L427.97-33.92L427.97-33.92Q432.13-33.92 434.59-32.26L434.59-32.26L434.59-32.26Q437.06-30.59 437.06-27.78L437.06-27.78L437.06-27.78Q437.06-24.96 435.36-23.36L435.36-23.36L435.36-23.36Q433.66-21.76 430.59-21.76L430.59-21.76L430.59-21.76Q428.48-21.76 427.46-22.46ZM471.62-7.10L471.62-7.10L471.62-7.10Q471.62-4.29 474.50-3.46L474.50-3.46L474.50-3.46Q473.79-1.09 471.04 0.19L471.04 0.19L471.04 0.19Q468.74 1.28 466.21 1.28L466.21 1.28L466.21 1.28Q463.68 1.28 462.37 0.61L462.37 0.61L462.37 0.61Q461.06-0.06 460.35-1.15L460.35-1.15L460.35-1.15Q459.20-2.82 459.20-5.95L459.20-5.95L459.20-5.95Q459.20-7.81 460.22-12.93L460.22-12.93L461.12-17.79L461.12-17.79Q462.21-23.36 462.21-25.41L462.21-25.41L462.21-25.41Q462.21-28.99 460.22-28.99L460.22-28.99L460.22-28.99Q457.73-28.99 456.13-25.34L456.13-25.34L456.13-25.34Q455.49-23.94 455.04-21.82L455.04-21.82L450.69 0L437.82 1.28L446.85-44.80L459.71-46.08L459.20-43.52L459.20-43.52Q457.41-33.66 455.87-30.34L455.87-30.34L455.87-30.34Q459.46-33.92 466.05-33.92L466.05-33.92L466.05-33.92Q473.02-33.92 474.30-29.31L474.30-29.31L474.30-29.31Q474.75-27.84 474.75-26.56L474.75-26.56L474.75-26.56Q474.75-25.28 474.66-24.29L474.66-24.29L474.66-24.29Q474.56-23.30 474.24-21.50L474.24-21.50L473.41-16.90L471.94-9.66L471.94-9.66Q471.62-8.19 471.62-7.10ZM471.74 11.52L471.74 11.52L471.74 11.52Q480.51 5.57 485.12-6.53L485.12-6.53L485.12-6.53Q489.73-18.37 489.73-34.75L489.73-34.75L489.73-34.75Q489.73-39.49 488.35-43.04L488.35-43.04L488.35-43.04Q486.98-46.59 483.90-49.92L483.90-49.92L483.90-49.92Q484.03-50.43 484.74-50.82L484.74-50.82L484.74-50.82Q485.44-51.20 486.14-51.20L486.14-51.20L486.14-51.20Q488.51-51.20 490.69-49.28L490.69-49.28L490.69-49.28Q492.86-47.36 494.53-44.16L494.53-44.16L494.53-44.16Q498.11-37.18 498.11-27.65L498.11-27.65L498.11-27.65Q498.11-17.92 494.59-8.45L494.59-8.45L494.59-8.45Q491.20 0.77 485.89 6.66L485.89 6.66L485.89 6.66Q480.32 12.80 474.82 12.80L474.82 12.80L474.82 12.80Q472.38 12.80 471.74 11.52Z"></path></g></g><style>text {
  font-size: 64px;
  font-family: Arial Black;
  dominant-baseline: central;
  text-anchor: middle;
}</style></svg>