<svg width="1174.41875px" height="112.39999999999999px" xmlns="http://www.w3.org/2000/svg" viewBox="-337.209375 18.800000000000004 1174.41875 112.39999999999999" style="background: none;" preserveAspectRatio="xMidYMid"><defs><linearGradient id="editing-rainbow-gradient" x1="0" x2="1" y1="0.5" y2="0.5" gradientUnits="objectBoundingBox"><stop offset="0.00" stop-color="#f00"></stop><stop offset="0.17" stop-color="#f90"></stop><stop offset="0.34" stop-color="#ff4"></stop><stop offset="0.51" stop-color="#9f0"></stop><stop offset="0.68" stop-color="#09f"></stop><stop offset="0.85" stop-color="#00f"></stop><stop offset="1.00" stop-color="#9900ff"></stop></linearGradient><filter id="editing-rainbow" x="-100%" y="-100%" width="300%" height="300%"><feMorphology operator="dilate" radius="1,2" in="SourceGraphic" result="dilate"></feMorphology><feColorMatrix in="dilate" result="color" type="matrix" values="0.7 0 0 0 0  0 0.7 0 0 0  0 0 0.7 0 0  0 0 0 1 0"></feColorMatrix><feOffset dy="2" result="offset"></feOffset><feGaussianBlur stdDeviation="3"></feGaussianBlur><feOffset dy="3"></feOffset><feColorMatrix result="blur" type="matrix" values="0.7 0 0 0 0  0 0.7 0 0 0  0 0 0.7 0 0  0 0 0 1 0"></feColorMatrix><feMerge><feMergeNode in="blur"></feMergeNode><feMergeNode in="offset"></feMergeNode><feMergeNode in="SourceGraphic"></feMergeNode></feMerge></filter></defs><g filter="url(#editing-rainbow)"><g transform="translate(-175.3699927330017, 104.92000198364258)"><path d="M37.26 0L37.26 0L20.67 0L20.67 0Q12.17 0 8.06-3.40L8.06-3.40L8.06-3.40Q3.94-6.80 3.94-13.87L3.94-13.87L3.94-35.02L3.94-35.02Q3.94-42.09 8.06-45.53L8.06-45.53L8.06-45.53Q12.17-48.96 20.67-48.96L20.67-48.96L37.26-48.96L37.26-48.96Q38.56-48.96 39.13-48.38L39.13-48.38L39.13-48.38Q39.71-47.80 39.71-46.51L39.71-46.51L39.71-38.28L39.71-38.28Q39.71-36.99 39.13-36.41L39.13-36.41L39.13-36.41Q38.56-35.84 37.26-35.84L37.26-35.84L23.60-35.84L23.60-35.84Q21.49-35.84 20.47-34.99L20.47-34.99L20.47-34.99Q19.45-34.14 19.45-32.44L19.45-32.44L19.45-16.25L19.45-16.25Q19.45-14.55 20.47-13.77L20.47-13.77L20.47-13.77Q21.49-12.99 23.60-12.99L23.60-12.99L37.26-12.99L37.26-12.99Q38.56-12.99 39.13-12.41L39.13-12.41L39.13-12.41Q39.71-11.83 39.71-10.54L39.71-10.54L39.71-2.45L39.71-2.45Q39.71-1.16 39.13-0.58L39.13-0.58L39.13-0.58Q38.56 0 37.26 0ZM88.88-36.04L88.88-12.85L88.88-12.85Q88.88-9.72 87.96-7.17L87.96-7.17L87.96-7.17Q87.04-4.62 84.69-2.82L84.69-2.82L84.69-2.82Q82.35-1.02 78.23 0L78.23 0L78.23 0Q74.12 1.02 67.80 1.02L67.80 1.02L67.80 1.02Q61.47 1.02 57.32 0L57.32 0L57.32 0Q53.18-1.02 50.83-2.82L50.83-2.82L50.83-2.82Q48.48-4.62 47.57-7.17L47.57-7.17L47.57-7.17Q46.65-9.72 46.65-12.85L46.65-12.85L46.65-36.04L46.65-36.04Q46.65-39.17 47.57-41.72L47.57-41.72L47.57-41.72Q48.48-44.27 50.83-46.10L50.83-46.10L50.83-46.10Q53.18-47.94 57.32-48.96L57.32-48.96L57.32-48.96Q61.47-49.98 67.80-49.98L67.80-49.98L67.80-49.98Q74.12-49.98 78.23-48.96L78.23-48.96L78.23-48.96Q82.35-47.94 84.69-46.10L84.69-46.10L84.69-46.10Q87.04-44.27 87.96-41.72L87.96-41.72L87.96-41.72Q88.88-39.17 88.88-36.04L88.88-36.04ZM62.08-33.59L62.08-15.30L62.08-15.30Q62.08-13.94 63.10-13.02L63.10-13.02L63.10-13.02Q64.12-12.10 67.80-12.10L67.80-12.10L67.80-12.10Q71.47-12.10 72.49-13.02L72.49-13.02L72.49-13.02Q73.51-13.94 73.51-15.30L73.51-15.30L73.51-33.59L73.51-33.59Q73.51-34.88 72.49-35.80L72.49-35.80L72.49-35.80Q71.47-36.72 67.80-36.72L67.80-36.72L67.80-36.72Q64.12-36.72 63.10-35.80L63.10-35.80L63.10-35.80Q62.08-34.88 62.08-33.59L62.08-33.59ZM134.57 0L134.57 0L99.96 0L99.96 0Q98.67 0 98.09-0.58L98.09-0.58L98.09-0.58Q97.51-1.16 97.51-2.45L97.51-2.45L97.51-46.51L97.51-46.51Q97.51-47.80 98.09-48.38L98.09-48.38L98.09-48.38Q98.67-48.96 99.96-48.96L99.96-48.96L110.50-48.96L110.50-48.96Q111.79-48.96 112.37-48.38L112.37-48.38L112.37-48.38Q112.95-47.80 112.95-46.51L112.95-46.51L112.95-12.85L122.26-12.85L122.26-23.87L122.26-23.87Q122.26-25.16 122.84-25.74L122.84-25.74L122.84-25.74Q123.42-26.32 124.71-26.32L124.71-26.32L134.57-26.32L134.57-26.32Q135.86-26.32 136.44-25.74L136.44-25.74L136.44-25.74Q137.02-25.16 137.02-23.87L137.02-23.87L137.02-2.45L137.02-2.45Q137.02-1.16 136.44-0.58L136.44-0.58L136.44-0.58Q135.86 0 134.57 0ZM186.25-36.04L186.25-12.85L186.25-12.85Q186.25-9.72 185.33-7.17L185.33-7.17L185.33-7.17Q184.42-4.62 182.07-2.82L182.07-2.82L182.07-2.82Q179.72-1.02 175.61 0L175.61 0L175.61 0Q171.50 1.02 165.17 1.02L165.17 1.02L165.17 1.02Q158.85 1.02 154.70 0L154.70 0L154.70 0Q150.55-1.02 148.21-2.82L148.21-2.82L148.21-2.82Q145.86-4.62 144.94-7.17L144.94-7.17L144.94-7.17Q144.02-9.72 144.02-12.85L144.02-12.85L144.02-36.04L144.02-36.04Q144.02-39.17 144.94-41.72L144.94-41.72L144.94-41.72Q145.86-44.27 148.21-46.10L148.21-46.10L148.21-46.10Q150.55-47.94 154.70-48.96L154.70-48.96L154.70-48.96Q158.85-49.98 165.17-49.98L165.17-49.98L165.17-49.98Q171.50-49.98 175.61-48.96L175.61-48.96L175.61-48.96Q179.72-47.94 182.07-46.10L182.07-46.10L182.07-46.10Q184.42-44.27 185.33-41.72L185.33-41.72L185.33-41.72Q186.25-39.17 186.25-36.04L186.25-36.04ZM159.46-33.59L159.46-15.30L159.46-15.30Q159.46-13.94 160.48-13.02L160.48-13.02L160.48-13.02Q161.50-12.10 165.17-12.10L165.17-12.10L165.17-12.10Q168.84-12.10 169.86-13.02L169.86-13.02L169.86-13.02Q170.88-13.94 170.88-15.30L170.88-15.30L170.88-33.59L170.88-33.59Q170.88-34.88 169.86-35.80L169.86-35.80L169.86-35.80Q168.84-36.72 165.17-36.72L165.17-36.72L165.17-36.72Q161.50-36.72 160.48-35.80L160.48-35.80L160.48-35.80Q159.46-34.88 159.46-33.59L159.46-33.59ZM215.36-36.72L210.26-36.72L210.26-28.02L215.36-28.02L215.36-28.02Q217.12-28.02 217.74-28.93L217.74-28.93L217.74-28.93Q218.35-29.85 218.35-31.21L218.35-31.21L218.35-33.52L218.35-33.52Q218.35-34.88 217.74-35.80L217.74-35.80L217.74-35.80Q217.12-36.72 215.36-36.72L215.36-36.72ZM207.81 0L207.81 0L197.34 0L197.34 0Q196.04 0 195.47-0.58L195.47-0.58L195.47-0.58Q194.89-1.16 194.89-2.45L194.89-2.45L194.89-46.51L194.89-46.51Q194.89-47.80 195.47-48.38L195.47-48.38L195.47-48.38Q196.04-48.96 197.34-48.96L197.34-48.96L219.98-48.96L219.98-48.96Q227.60-48.96 230.49-45.80L230.49-45.80L230.49-45.80Q233.38-42.64 233.38-37.60L233.38-37.60L233.38-34.48L233.38-34.48Q233.38-31.62 232.53-29.61L232.53-29.61L232.53-29.61Q231.68-27.61 229.57-26.72L229.57-26.72L229.57-26.72Q233.24-26.32 235.52-23.73L235.52-23.73L235.52-23.73Q237.80-21.15 237.80-16.86L237.80-16.86L237.80-2.45L237.80-2.45Q237.80-1.16 237.22-0.58L237.22-0.58L237.22-0.58Q236.64 0 235.35 0L235.35 0L224.81 0L224.81 0Q223.52 0 222.94-0.58L222.94-0.58L222.94-0.58Q222.36-1.16 222.36-2.45L222.36-2.45L222.36-12.85L222.36-12.85Q222.36-14.35 221.78-15.06L221.78-15.06L221.78-15.06Q221.20-15.78 219.78-15.78L219.78-15.78L210.26-15.78L210.26-2.45L210.26-2.45Q210.26-1.16 209.68-0.58L209.68-0.58L209.68-0.58Q209.10 0 207.81 0ZM283.42 0L283.42 0L261.94 0L261.94 0Q260.64 0 260.07-0.58L260.07-0.58L260.07-0.58Q259.49-1.16 259.49-2.45L259.49-2.45L259.49-10.40L259.49-10.40Q259.49-11.70 260.07-12.27L260.07-12.27L260.07-12.27Q260.64-12.85 261.94-12.85L261.94-12.85L280.23-12.85L280.23-12.85Q281.11-12.85 281.55-13.43L281.55-13.43L281.55-13.43Q282.00-14.01 282.00-14.82L282.00-14.82L282.00-14.82Q282.00-15.98 281.55-16.52L281.55-16.52L281.55-16.52Q281.11-17.07 280.23-17.14L280.23-17.14L270.03-18.56L270.03-18.56Q265.27-19.24 262.38-21.69L262.38-21.69L262.38-21.69Q259.49-24.14 259.49-29.85L259.49-29.85L259.49-36.99L259.49-36.99Q259.49-42.77 263.23-45.87L263.23-45.87L263.23-45.87Q266.97-48.96 273.56-48.96L273.56-48.96L292.60-48.96L292.60-48.96Q293.90-48.96 294.47-48.38L294.47-48.38L294.47-48.38Q295.05-47.80 295.05-46.51L295.05-46.51L295.05-38.42L295.05-38.42Q295.05-37.13 294.47-36.55L294.47-36.55L294.47-36.55Q293.90-35.97 292.60-35.97L292.60-35.97L276.76-35.97L276.76-35.97Q275.88-35.97 275.40-35.39L275.40-35.39L275.40-35.39Q274.92-34.82 274.92-33.93L274.92-33.93L274.92-33.93Q274.92-33.05 275.40-32.44L275.40-32.44L275.40-32.44Q275.88-31.82 276.76-31.76L276.76-31.76L286.89-30.40L286.89-30.40Q291.65-29.72 294.58-27.27L294.58-27.27L294.58-27.27Q297.50-24.82 297.50-19.11L297.50-19.11L297.50-11.97L297.50-11.97Q297.50-6.19 293.73-3.09L293.73-3.09L293.73-3.09Q289.95 0 283.42 0ZM327.62 0L327.62 0L306.14 0L306.14 0Q304.84 0 304.27-0.58L304.27-0.58L304.27-0.58Q303.69-1.16 303.69-2.45L303.69-2.45L303.69-10.40L303.69-10.40Q303.69-11.70 304.27-12.27L304.27-12.27L304.27-12.27Q304.84-12.85 306.14-12.85L306.14-12.85L324.43-12.85L324.43-12.85Q325.31-12.85 325.75-13.43L325.75-13.43L325.75-13.43Q326.20-14.01 326.20-14.82L326.20-14.82L326.20-14.82Q326.20-15.98 325.75-16.52L325.75-16.52L325.75-16.52Q325.31-17.07 324.43-17.14L324.43-17.14L314.23-18.56L314.23-18.56Q309.47-19.24 306.58-21.69L306.58-21.69L306.58-21.69Q303.69-24.14 303.69-29.85L303.69-29.85L303.69-36.99L303.69-36.99Q303.69-42.77 307.43-45.87L307.43-45.87L307.43-45.87Q311.17-48.96 317.76-48.96L317.76-48.96L336.80-48.96L336.80-48.96Q338.10-48.96 338.67-48.38L338.67-48.38L338.67-48.38Q339.25-47.80 339.25-46.51L339.25-46.51L339.25-38.42L339.25-38.42Q339.25-37.13 338.67-36.55L338.67-36.55L338.67-36.55Q338.10-35.97 336.80-35.97L336.80-35.97L320.96-35.97L320.96-35.97Q320.08-35.97 319.60-35.39L319.60-35.39L319.60-35.39Q319.12-34.82 319.12-33.93L319.12-33.93L319.12-33.93Q319.12-33.05 319.60-32.44L319.60-32.44L319.60-32.44Q320.08-31.82 320.96-31.76L320.96-31.76L331.09-30.40L331.09-30.40Q335.85-29.72 338.78-27.27L338.78-27.27L338.78-27.27Q341.70-24.82 341.70-19.11L341.70-19.11L341.70-11.97L341.70-11.97Q341.70-6.19 337.93-3.09L337.93-3.09L337.93-3.09Q334.15 0 327.62 0ZM362.10 0L362.10 0L351.56 0L351.56 0Q350.27 0 349.69-0.58L349.69-0.58L349.69-0.58Q349.11-1.16 349.11-2.45L349.11-2.45L349.11-46.51L349.11-46.51Q349.11-47.80 349.69-48.38L349.69-48.38L349.69-48.38Q350.27-48.96 351.56-48.96L351.56-48.96L362.10-48.96L362.10-48.96Q363.39-48.96 363.97-48.38L363.97-48.38L363.97-48.38Q364.55-47.80 364.55-46.51L364.55-46.51L364.55-31.76L375.90-31.76L375.90-46.51L375.90-46.51Q375.90-47.80 376.48-48.38L376.48-48.38L376.48-48.38Q377.06-48.96 378.35-48.96L378.35-48.96L388.89-48.96L388.89-48.96Q390.18-48.96 390.76-48.38L390.76-48.38L390.76-48.38Q391.34-47.80 391.34-46.51L391.34-46.51L391.34-2.45L391.34-2.45Q391.34-1.16 390.76-0.58L390.76-0.58L390.76-0.58Q390.18 0 388.89 0L388.89 0L378.35 0L378.35 0Q377.06 0 376.48-0.58L376.48-0.58L376.48-0.58Q375.90-1.16 375.90-2.45L375.90-2.45L375.90-17.54L364.55-17.54L364.55-2.45L364.55-2.45Q364.55-1.16 363.97-0.58L363.97-0.58L363.97-0.58Q363.39 0 362.10 0ZM434.72-17.48L416.50-17.48L416.50-17.48Q415.21-17.48 414.63-18.05L414.63-18.05L414.63-18.05Q414.05-18.63 414.05-19.92L414.05-19.92L414.05-29.04L414.05-29.04Q414.05-30.33 414.63-30.91L414.63-30.91L414.63-30.91Q415.21-31.48 416.50-31.48L416.50-31.48L434.72-31.48L434.72-31.48Q436.02-31.48 436.59-30.91L436.59-30.91L436.59-30.91Q437.17-30.33 437.17-29.04L437.17-29.04L437.17-19.92L437.17-19.92Q437.17-18.63 436.59-18.05L436.59-18.05L436.59-18.05Q436.02-17.48 434.72-17.48L434.72-17.48ZM478.86 5.44L478.86 5.44L475.18 5.44L475.18 5.44Q465.60 5.44 462.03 1.56L462.03 1.56L462.03 1.56Q458.46-2.31 458.46-8.43L458.46-8.43L458.46-40.46L458.46-40.46Q458.46-46.65 462.03-50.52L462.03-50.52L462.03-50.52Q465.60-54.40 475.18-54.40L475.18-54.40L478.86-54.40L478.86-54.40Q480.15-54.40 480.73-53.82L480.73-53.82L480.73-53.82Q481.30-53.24 481.30-51.95L481.30-51.95L481.30-43.72L481.30-43.72Q481.30-42.43 480.73-41.85L480.73-41.85L480.73-41.85Q480.15-41.28 478.86-41.28L478.86-41.28L476.75-41.28L476.75-41.28Q475.12-41.28 474.54-40.46L474.54-40.46L474.54-40.46Q473.96-39.64 473.96-37.88L473.96-37.88L473.96-10.95L473.96-10.95Q473.96-9.18 474.54-8.36L474.54-8.36L474.54-8.36Q475.12-7.55 476.75-7.55L476.75-7.55L478.86-7.55L478.86-7.55Q480.15-7.55 480.73-6.97L480.73-6.97L480.73-6.97Q481.30-6.39 481.30-5.10L481.30-5.10L481.30 2.99L481.30 2.99Q481.30 4.28 480.73 4.86L480.73 4.86L480.73 4.86Q480.15 5.44 478.86 5.44ZM521.63 0L521.63 0L505.04 0L505.04 0Q496.54 0 492.42-3.40L492.42-3.40L492.42-3.40Q488.31-6.80 488.31-13.87L488.31-13.87L488.31-35.02L488.31-35.02Q488.31-42.09 492.42-45.53L492.42-45.53L492.42-45.53Q496.54-48.96 505.04-48.96L505.04-48.96L521.63-48.96L521.63-48.96Q522.92-48.96 523.50-48.38L523.50-48.38L523.50-48.38Q524.08-47.80 524.08-46.51L524.08-46.51L524.08-38.28L524.08-38.28Q524.08-36.99 523.50-36.41L523.50-36.41L523.50-36.41Q522.92-35.84 521.63-35.84L521.63-35.84L507.96-35.84L507.96-35.84Q505.85-35.84 504.83-34.99L504.83-34.99L504.83-34.99Q503.81-34.14 503.81-32.44L503.81-32.44L503.81-16.25L503.81-16.25Q503.81-14.55 504.83-13.77L504.83-13.77L504.83-13.77Q505.85-12.99 507.96-12.99L507.96-12.99L521.63-12.99L521.63-12.99Q522.92-12.99 523.50-12.41L523.50-12.41L523.50-12.41Q524.08-11.83 524.08-10.54L524.08-10.54L524.08-2.45L524.08-2.45Q524.08-1.16 523.50-0.58L523.50-0.58L523.50-0.58Q522.92 0 521.63 0ZM573.24-36.04L573.24-12.85L573.24-12.85Q573.24-9.72 572.32-7.17L572.32-7.17L572.32-7.17Q571.40-4.62 569.06-2.82L569.06-2.82L569.06-2.82Q566.71-1.02 562.60 0L562.60 0L562.60 0Q558.48 1.02 552.16 1.02L552.16 1.02L552.16 1.02Q545.84 1.02 541.69 0L541.69 0L541.69 0Q537.54-1.02 535.19-2.82L535.19-2.82L535.19-2.82Q532.85-4.62 531.93-7.17L531.93-7.17L531.93-7.17Q531.01-9.72 531.01-12.85L531.01-12.85L531.01-36.04L531.01-36.04Q531.01-39.17 531.93-41.72L531.93-41.72L531.93-41.72Q532.85-44.27 535.19-46.10L535.19-46.10L535.19-46.10Q537.54-47.94 541.69-48.96L541.69-48.96L541.69-48.96Q545.84-49.98 552.16-49.98L552.16-49.98L552.16-49.98Q558.48-49.98 562.60-48.96L562.60-48.96L562.60-48.96Q566.71-47.94 569.06-46.10L569.06-46.10L569.06-46.10Q571.40-44.27 572.32-41.72L572.32-41.72L572.32-41.72Q573.24-39.17 573.24-36.04L573.24-36.04ZM546.45-33.59L546.45-15.30L546.45-15.30Q546.45-13.94 547.47-13.02L547.47-13.02L547.47-13.02Q548.49-12.10 552.16-12.10L552.16-12.10L552.16-12.10Q555.83-12.10 556.85-13.02L556.85-13.02L556.85-13.02Q557.87-13.94 557.87-15.30L557.87-15.30L557.87-33.59L557.87-33.59Q557.87-34.88 556.85-35.80L556.85-35.80L556.85-35.80Q555.83-36.72 552.16-36.72L552.16-36.72L552.16-36.72Q548.49-36.72 547.47-35.80L547.47-35.80L547.47-35.80Q546.45-34.88 546.45-33.59L546.45-33.59ZM618.94 0L618.94 0L584.32 0L584.32 0Q583.03 0 582.45-0.58L582.45-0.58L582.45-0.58Q581.88-1.16 581.88-2.45L581.88-2.45L581.88-46.51L581.88-46.51Q581.88-47.80 582.45-48.38L582.45-48.38L582.45-48.38Q583.03-48.96 584.32-48.96L584.32-48.96L594.86-48.96L594.86-48.96Q596.16-48.96 596.73-48.38L596.73-48.38L596.73-48.38Q597.31-47.80 597.31-46.51L597.31-46.51L597.31-12.85L606.63-12.85L606.63-23.87L606.63-23.87Q606.63-25.16 607.21-25.74L607.21-25.74L607.21-25.74Q607.78-26.32 609.08-26.32L609.08-26.32L618.94-26.32L618.94-26.32Q620.23-26.32 620.81-25.74L620.81-25.74L620.81-25.74Q621.38-25.16 621.38-23.87L621.38-23.87L621.38-2.45L621.38-2.45Q621.38-1.16 620.81-0.58L620.81-0.58L620.81-0.58Q620.23 0 618.94 0ZM670.62-36.04L670.62-12.85L670.62-12.85Q670.62-9.72 669.70-7.17L669.70-7.17L669.70-7.17Q668.78-4.62 666.43-2.82L666.43-2.82L666.43-2.82Q664.09-1.02 659.97 0L659.97 0L659.97 0Q655.86 1.02 649.54 1.02L649.54 1.02L649.54 1.02Q643.21 1.02 639.06 0L639.06 0L639.06 0Q634.92-1.02 632.57-2.82L632.57-2.82L632.57-2.82Q630.22-4.62 629.31-7.17L629.31-7.17L629.31-7.17Q628.39-9.72 628.39-12.85L628.39-12.85L628.39-36.04L628.39-36.04Q628.39-39.17 629.31-41.72L629.31-41.72L629.31-41.72Q630.22-44.27 632.57-46.10L632.57-46.10L632.57-46.10Q634.92-47.94 639.06-48.96L639.06-48.96L639.06-48.96Q643.21-49.98 649.54-49.98L649.54-49.98L649.54-49.98Q655.86-49.98 659.97-48.96L659.97-48.96L659.97-48.96Q664.09-47.94 666.43-46.10L666.43-46.10L666.43-46.10Q668.78-44.27 669.70-41.72L669.70-41.72L669.70-41.72Q670.62-39.17 670.62-36.04L670.62-36.04ZM643.82-33.59L643.82-15.30L643.82-15.30Q643.82-13.94 644.84-13.02L644.84-13.02L644.84-13.02Q645.86-12.10 649.54-12.10L649.54-12.10L649.54-12.10Q653.21-12.10 654.23-13.02L654.23-13.02L654.23-13.02Q655.25-13.94 655.25-15.30L655.25-15.30L655.25-33.59L655.25-33.59Q655.25-34.88 654.23-35.80L654.23-35.80L654.23-35.80Q653.21-36.72 649.54-36.72L649.54-36.72L649.54-36.72Q645.86-36.72 644.84-35.80L644.84-35.80L644.84-35.80Q643.82-34.88 643.82-33.59L643.82-33.59ZM699.72-36.72L694.62-36.72L694.62-28.02L699.72-28.02L699.72-28.02Q701.49-28.02 702.10-28.93L702.10-28.93L702.10-28.93Q702.71-29.85 702.71-31.21L702.71-31.21L702.71-33.52L702.71-33.52Q702.71-34.88 702.10-35.80L702.10-35.80L702.10-35.80Q701.49-36.72 699.72-36.72L699.72-36.72ZM692.17 0L692.17 0L681.70 0L681.70 0Q680.41 0 679.83-0.58L679.83-0.58L679.83-0.58Q679.25-1.16 679.25-2.45L679.25-2.45L679.25-46.51L679.25-46.51Q679.25-47.80 679.83-48.38L679.83-48.38L679.83-48.38Q680.41-48.96 681.70-48.96L681.70-48.96L704.34-48.96L704.34-48.96Q711.96-48.96 714.85-45.80L714.85-45.80L714.85-45.80Q717.74-42.64 717.74-37.60L717.74-37.60L717.74-34.48L717.74-34.48Q717.74-31.62 716.89-29.61L716.89-29.61L716.89-29.61Q716.04-27.61 713.93-26.72L713.93-26.72L713.93-26.72Q717.60-26.32 719.88-23.73L719.88-23.73L719.88-23.73Q722.16-21.15 722.16-16.86L722.16-16.86L722.16-2.45L722.16-2.45Q722.16-1.16 721.58-0.58L721.58-0.58L721.58-0.58Q721.00 0 719.71 0L719.71 0L709.17 0L709.17 0Q707.88 0 707.30-0.58L707.30-0.58L707.30-0.58Q706.72-1.16 706.72-2.45L706.72-2.45L706.72-12.85L706.72-12.85Q706.72-14.35 706.15-15.06L706.15-15.06L706.15-15.06Q705.57-15.78 704.14-15.78L704.14-15.78L694.62-15.78L694.62-2.45L694.62-2.45Q694.62-1.16 694.04-0.58L694.04-0.58L694.04-0.58Q693.46 0 692.17 0ZM752.49 0L752.49 0L731.00 0L731.00 0Q729.71 0 729.13-0.58L729.13-0.58L729.13-0.58Q728.55-1.16 728.55-2.45L728.55-2.45L728.55-10.40L728.55-10.40Q728.55-11.70 729.13-12.27L729.13-12.27L729.13-12.27Q729.71-12.85 731.00-12.85L731.00-12.85L749.29-12.85L749.29-12.85Q750.18-12.85 750.62-13.43L750.62-13.43L750.62-13.43Q751.06-14.01 751.06-14.82L751.06-14.82L751.06-14.82Q751.06-15.98 750.62-16.52L750.62-16.52L750.62-16.52Q750.18-17.07 749.29-17.14L749.29-17.14L739.09-18.56L739.09-18.56Q734.33-19.24 731.44-21.69L731.44-21.69L731.44-21.69Q728.55-24.14 728.55-29.85L728.55-29.85L728.55-36.99L728.55-36.99Q728.55-42.77 732.29-45.87L732.29-45.87L732.29-45.87Q736.03-48.96 742.63-48.96L742.63-48.96L761.67-48.96L761.67-48.96Q762.96-48.96 763.54-48.38L763.54-48.38L763.54-48.38Q764.12-47.80 764.12-46.51L764.12-46.51L764.12-38.42L764.12-38.42Q764.12-37.13 763.54-36.55L763.54-36.55L763.54-36.55Q762.96-35.97 761.67-35.97L761.67-35.97L745.82-35.97L745.82-35.97Q744.94-35.97 744.46-35.39L744.46-35.39L744.46-35.39Q743.99-34.82 743.99-33.93L743.99-33.93L743.99-33.93Q743.99-33.05 744.46-32.44L744.46-32.44L744.46-32.44Q744.94-31.82 745.82-31.76L745.82-31.76L755.96-30.40L755.96-30.40Q760.72-29.72 763.64-27.27L763.64-27.27L763.64-27.27Q766.56-24.82 766.56-19.11L766.56-19.11L766.56-11.97L766.56-11.97Q766.56-6.19 762.79-3.09L762.79-3.09L762.79-3.09Q759.02 0 752.49 0ZM786.96 0L786.96 0L776.42 0L776.42 0Q775.13 0 774.55-0.58L774.55-0.58L774.55-0.58Q773.98-1.16 773.98-2.45L773.98-2.45L773.98-46.51L773.98-46.51Q773.98-47.80 774.55-48.38L774.55-48.38L774.55-48.38Q775.13-48.96 776.42-48.96L776.42-48.96L786.96-48.96L786.96-48.96Q788.26-48.96 788.83-48.38L788.83-48.38L788.83-48.38Q789.41-47.80 789.41-46.51L789.41-46.51L789.41-31.76L800.77-31.76L800.77-46.51L800.77-46.51Q800.77-47.80 801.35-48.38L801.35-48.38L801.35-48.38Q801.92-48.96 803.22-48.96L803.22-48.96L813.76-48.96L813.76-48.96Q815.05-48.96 815.63-48.38L815.63-48.38L815.63-48.38Q816.20-47.80 816.20-46.51L816.20-46.51L816.20-2.45L816.20-2.45Q816.20-1.16 815.63-0.58L815.63-0.58L815.63-0.58Q815.05 0 813.76 0L813.76 0L803.22 0L803.22 0Q801.92 0 801.35-0.58L801.35-0.58L801.35-0.58Q800.77-1.16 800.77-2.45L800.77-2.45L800.77-17.54L789.41-17.54L789.41-2.45L789.41-2.45Q789.41-1.16 788.83-0.58L788.83-0.58L788.83-0.58Q788.26 0 786.96 0ZM830.08 5.44L830.08 5.44L826.40 5.44L826.40 5.44Q825.11 5.44 824.53 4.86L824.53 4.86L824.53 4.86Q823.96 4.28 823.96 2.99L823.96 2.99L823.96-5.10L823.96-5.10Q823.96-6.39 824.53-6.97L824.53-6.97L824.53-6.97Q825.11-7.55 826.40-7.55L826.40-7.55L828.51-7.55L828.51-7.55Q830.14-7.55 830.72-8.36L830.72-8.36L830.72-8.36Q831.30-9.18 831.30-10.95L831.30-10.95L831.30-37.88L831.30-37.88Q831.30-39.64 830.72-40.46L830.72-40.46L830.72-40.46Q830.14-41.28 828.51-41.28L828.51-41.28L826.40-41.28L826.40-41.28Q825.11-41.28 824.53-41.85L824.53-41.85L824.53-41.85Q823.96-42.43 823.96-43.72L823.96-43.72L823.96-51.95L823.96-51.95Q823.96-53.24 824.53-53.82L824.53-53.82L824.53-53.82Q825.11-54.40 826.40-54.40L826.40-54.40L830.08-54.40L830.08-54.40Q839.66-54.40 843.23-50.52L843.23-50.52L843.23-50.52Q846.80-46.65 846.80-40.46L846.80-40.46L846.80-8.43L846.80-8.43Q846.80-2.31 843.23 1.56L843.23 1.56L843.23 1.56Q839.66 5.44 830.08 5.44Z" fill="url(#editing-rainbow-gradient)"></path></g></g><style>text {
  font-size: 64px;
  font-family: Arial Black;
  dominant-baseline: central;
  text-anchor: middle;
}</style></svg>