<svg width="1187.6375px" height="146px" xmlns="http://www.w3.org/2000/svg" viewBox="-343.81875 2 1187.6375 146" style="background: rgba(0, 0, 0, 0);" preserveAspectRatio="xMidYMid"><defs><linearGradient id="editing-rainbow-gradient" x1="0" x2="1" y1="0.5" y2="0.5" gradientUnits="objectBoundingBox"><stop offset="0.00" stop-color="#f00"></stop><stop offset="0.17" stop-color="#f90"></stop><stop offset="0.34" stop-color="#ff4"></stop><stop offset="0.51" stop-color="#9f0"></stop><stop offset="0.68" stop-color="#09f"></stop><stop offset="0.85" stop-color="#00f"></stop><stop offset="1.00" stop-color="#90f"></stop></linearGradient><filter id="editing-rainbow" x="-100%" y="-100%" width="300%" height="300%"><feMorphology operator="dilate" radius="1,2" in="SourceGraphic" result="dilate"></feMorphology><feColorMatrix in="dilate" result="color" type="matrix" values="0.7 0 0 0 0  0 0.7 0 0 0  0 0 0.7 0 0  0 0 0 1 0"></feColorMatrix><feOffset dy="2" result="offset"></feOffset><feGaussianBlur stdDeviation="3"></feGaussianBlur><feOffset dy="3"></feOffset><feColorMatrix result="blur" type="matrix" values="0.7 0 0 0 0  0 0.7 0 0 0  0 0 0.7 0 0  0 0 0 1 0"></feColorMatrix><feMerge><feMergeNode in="blur"></feMergeNode><feMergeNode in="offset"></feMergeNode><feMergeNode in="SourceGraphic"></feMergeNode></feMerge></filter></defs><g filter="url(#editing-rainbow)"><g transform="translate(-176.78001403808594, 104.1050033569336)"><path d="M19.48-47.95L19.48 0L13.12 0L3.50-9.58L3.50-38.37L13.12-47.95L19.48-47.95ZM32.63-38.37L22.00-38.37L22.00-47.95L39.02-47.95L48.60-38.37L48.60-28.73L32.63-28.73L32.63-38.37ZM39.02 0L22.00 0L22.00-9.58L32.63-9.58L32.63-16.58L48.60-16.58L48.60-9.58L39.02 0ZM71.15-38.23L71.15-9.76L77.14-9.76L77.14 0L64.86 0L55.14-9.58L55.14-38.37L64.86-47.95L77.14-47.95L77.14-38.23L71.15-38.23ZM85.78-9.76L85.78-38.23L79.67-38.23L79.67-47.95L92.07-47.95L101.75-38.37L101.75-9.58L92.07 0L79.67 0L79.67-9.76L85.78-9.76ZM125.09 0L109.12 0L109.12-47.95L125.09-47.95L125.09 0ZM150.02 0L127.62 0L127.62-9.58L135.53-9.58L135.53-15.65L150.02-15.65L150.02 0ZM169.79-38.23L169.79-9.76L175.79-9.76L175.79 0L163.50 0L153.78-9.58L153.78-38.37L163.50-47.95L175.79-47.95L175.79-38.23L169.79-38.23ZM184.42-9.76L184.42-38.23L178.32-38.23L178.32-47.95L190.71-47.95L200.39-38.37L200.39-9.58L190.71 0L178.32 0L178.32-9.76L184.42-9.76ZM223.73 0L207.76 0L207.76-47.95L223.73-47.95L223.73 0ZM238.26-38.37L226.26-38.37L226.26-47.95L244.51-47.95L254.12-38.37L254.12-23.99L246.75-16.62L246.25-17.63L231.25-15.65L231.83-14.38L226.26-14.38L226.26-23.67L238.26-23.67L238.26-38.37ZM246.75-16.62L255.75 0L238.69 0L231.83-14.38L244.51-14.38L246.75-16.62ZM316.67 0L310.24 0L310.24-17.96L289.50-17.96L279.88-27.57L279.88-38.37L289.50-47.95L294.92-47.95L294.92-30.93L316.96-30.93L326.24-21.32L326.24-9.58L316.67 0ZM310.24-39.31L297.45-39.31L297.45-47.95L316.63-47.95L324.94-39.60L324.94-34.51L310.24-34.51L310.24-39.31ZM279.88-9.58L279.88-14.38L295.86-14.38L295.86-8.67L307.71-8.67L307.71 0L287.94 0L279.88-9.58ZM370.04 0L363.60 0L363.60-17.96L342.86-17.96L333.25-27.57L333.25-38.37L342.86-47.95L348.28-47.95L348.28-30.93L370.33-30.93L379.61-21.32L379.61-9.58L370.04 0ZM363.60-39.31L350.81-39.31L350.81-47.95L370-47.95L378.31-39.60L378.31-34.51L363.60-34.51L363.60-39.31ZM333.25-9.58L333.25-14.38L349.22-14.38L349.22-8.67L361.08-8.67L361.08 0L341.31 0L333.25-9.58ZM417.59-29.09L417.59-47.95L433.70-47.95L433.70 0L417.70 0L417.70-19.48L405.84-19.48L405.84-29.09L417.59-29.09ZM403.31-47.95L403.31 0L387.34 0L387.34-47.95L403.31-47.95ZM463.76-18.10L463.76-26.74L495.67-26.74L495.67-18.10L463.76-18.10ZM545.82-43.50L545.82-4.48L551.75-4.48L551.75 5.13L539.43 5.13L530.14-4.48L530.14-43.50L539.43-53.08L551.75-53.08L551.75-43.50L545.82-43.50ZM576.35-47.95L576.35 0L570.00 0L560.38-9.58L560.38-38.37L570.00-47.95L576.35-47.95ZM589.51-38.37L578.88-38.37L578.88-47.95L595.90-47.95L605.48-38.37L605.48-28.73L589.51-28.73L589.51-38.37ZM595.90 0L578.88 0L578.88-9.58L589.51-9.58L589.51-16.58L605.48-16.58L605.48-9.58L595.90 0ZM628.02-38.23L628.02-9.76L634.02-9.76L634.02 0L621.74 0L612.02-9.58L612.02-38.37L621.74-47.95L634.02-47.95L634.02-38.23L628.02-38.23ZM642.66-9.76L642.66-38.23L636.55-38.23L636.55-47.95L648.95-47.95L658.63-38.37L658.63-9.58L648.95 0L636.55 0L636.55-9.76L642.66-9.76ZM702.06 0L695.63 0L695.63-17.96L674.89-17.96L665.28-27.57L665.28-38.37L674.89-47.95L680.31-47.95L680.31-30.93L702.35-30.93L711.64-21.32L711.64-9.58L702.06 0ZM695.63-39.31L682.84-39.31L682.84-47.95L702.02-47.95L710.33-39.60L710.33-34.51L695.63-34.51L695.63-39.31ZM665.28-9.58L665.28-14.38L681.25-14.38L681.25-8.67L693.10-8.67L693.10 0L673.33 0L665.28-9.58ZM755.43 0L749.00 0L749.00-17.96L728.26-17.96L718.65-27.57L718.65-38.37L728.26-47.95L733.68-47.95L733.68-30.93L755.72-30.93L765.00-21.32L765.00-9.58L755.43 0ZM749.00-39.31L736.21-39.31L736.21-47.95L755.39-47.95L763.70-39.60L763.70-34.51L749.00-34.51L749.00-39.31ZM718.65-9.58L718.65-14.38L734.62-14.38L734.62-8.67L746.47-8.67L746.47 0L726.70 0L718.65-9.58ZM802.98-29.09L802.98-47.95L819.09-47.95L819.09 0L803.09 0L803.09-19.48L791.24-19.48L791.24-29.09L802.98-29.09ZM788.71-47.95L788.71 0L772.74 0L772.74-47.95L788.71-47.95ZM834.38-43.50L834.38-4.48L828.45-4.48L828.45 5.13L840.77 5.13L850.06-4.48L850.06-43.50L840.77-53.08L828.45-53.08L828.45-43.50L834.38-43.50Z" fill="url(#editing-rainbow-gradient)"></path></g></g><style>text {
  font-size: 64px;
  font-family: Arial Black;
  dominant-baseline: central;
  text-anchor: middle;
}</style></svg>