<svg width="1083.14375px" height="128px" xmlns="http://www.w3.org/2000/svg" viewBox="-291.571875 11 1083.14375 128" style="background: rgba(0, 0, 0, 0);" preserveAspectRatio="xMidYMid"><defs><linearGradient id="editing-rainbow-gradient" x1="0" x2="1" y1="0.5" y2="0.5" gradientUnits="objectBoundingBox"><stop offset="0.00" stop-color="#f00"></stop><stop offset="0.17" stop-color="#f90"></stop><stop offset="0.34" stop-color="#ff4"></stop><stop offset="0.51" stop-color="#9f0"></stop><stop offset="0.68" stop-color="#09f"></stop><stop offset="0.85" stop-color="#00f"></stop><stop offset="1.00" stop-color="#90f"></stop></linearGradient><filter id="editing-rainbow" x="-100%" y="-100%" width="300%" height="300%"><feMorphology operator="dilate" radius="1,2" in="SourceGraphic" result="dilate"></feMorphology><feColorMatrix in="dilate" result="color" type="matrix" values="0.7 0 0 0 0  0 0.7 0 0 0  0 0 0.7 0 0  0 0 0 1 0"></feColorMatrix><feOffset dy="2" result="offset"></feOffset><feGaussianBlur stdDeviation="3"></feGaussianBlur><feOffset dy="3"></feOffset><feColorMatrix result="blur" type="matrix" values="0.7 0 0 0 0  0 0.7 0 0 0  0 0 0.7 0 0  0 0 0 1 0"></feColorMatrix><feMerge><feMergeNode in="blur"></feMergeNode><feMergeNode in="offset"></feMergeNode><feMergeNode in="SourceGraphic"></feMergeNode></feMerge></filter></defs><g filter="url(#editing-rainbow)"><g transform="translate(-138.7650158405304, 100.17500114440918)"><path d="M16.84-41.47L16.84 0L11.34 0L3.03-8.28L3.03-33.19L11.34-41.47L16.84-41.47ZM28.22-33.19L19.03-33.19L19.03-41.47L33.75-41.47L42.03-33.19L42.03-24.84L28.22-24.84L28.22-33.19ZM33.75 0L19.03 0L19.03-8.28L28.22-8.28L28.22-14.34L42.03-14.34L42.03-8.28L33.75 0ZM85.25-24.91L85.25-8.28L76.97 0L67.72 0L67.72-7.75L71.16-7.75L71.16-24.91L67.72-24.91L67.72-33.19L76.97-33.19L85.25-24.91ZM61.94-24.91L61.94-7.75L65.53-7.75L65.53 0L56.25 0L47.97-8.28L47.97-24.91L56.25-33.19L65.53-33.19L65.53-24.91L61.94-24.91ZM111.47-8.28L111.47 0L99.22 0L91.47-7.75L91.47-45.84L105.28-45.84L105.28-8.28L111.47-8.28ZM152-24.91L152-8.28L143.72 0L134.47 0L134.47-7.75L137.91-7.75L137.91-24.91L134.47-24.91L134.47-33.19L143.72-33.19L152-24.91ZM128.69-24.91L128.69-7.75L132.28-7.75L132.28 0L123 0L114.72-8.28L114.72-24.91L123-33.19L132.28-33.19L132.28-24.91L128.69-24.91ZM180.13-16.84L180.13-24.91L174.25-24.91L174.25-28.53L178.88-33.19L187.25-33.19L193.97-25.44L193.97-16.84L180.13-16.84ZM172.03 0L158.22 0L158.22-33.19L172.03-33.19L172.03 0ZM200.78-15.66L200.78-23.13L228.38-23.13L228.38-15.66L200.78-15.66ZM269.03 0L263.47 0L263.47-15.53L245.53-15.53L237.22-23.84L237.22-33.19L245.53-41.47L250.22-41.47L250.22-26.75L269.28-26.75L277.31-18.44L277.31-8.28L269.03 0ZM263.47-34L252.41-34L252.41-41.47L269-41.47L276.19-34.25L276.19-29.84L263.47-29.84L263.47-34ZM237.22-8.28L237.22-12.44L251.03-12.44L251.03-7.50L261.28-7.50L261.28 0L244.19 0L237.22-8.28ZM315.19 0L309.63 0L309.63-15.53L291.69-15.53L283.38-23.84L283.38-33.19L291.69-41.47L296.38-41.47L296.38-26.75L315.44-26.75L323.47-18.44L323.47-8.28L315.19 0ZM309.63-34L298.56-34L298.56-41.47L315.16-41.47L322.34-34.25L322.34-29.84L309.63-29.84L309.63-34ZM283.38-8.28L283.38-12.44L297.19-12.44L297.19-7.50L307.44-7.50L307.44 0L290.34 0L283.38-8.28ZM356.31-25.16L356.31-41.47L370.25-41.47L370.25 0L356.41 0L356.41-16.84L346.16-16.84L346.16-25.16L356.31-25.16ZM343.97-41.47L343.97 0L330.16 0L330.16-41.47L343.97-41.47ZM396.25-15.66L396.25-23.13L423.84-23.13L423.84-15.66L396.25-15.66ZM467.22-37.63L467.22-3.88L472.34-3.88L472.34 4.44L461.69 4.44L453.66-3.88L453.66-37.63L461.69-45.91L472.34-45.91L472.34-37.63L467.22-37.63ZM493.56-33.19L493.56 0L488.03 0L479.75-8.28L479.75-24.91L488.03-33.19L493.56-33.19ZM501.88-24.91L495.75-24.91L495.75-33.19L507.41-33.19L515.69-24.91L515.69-19.94L501.88-19.94L501.88-24.91ZM507.41 0L495.75 0L495.75-7.75L501.88-7.75L501.88-11.91L515.69-11.91L515.69-8.28L507.41 0ZM558.38-24.91L558.38-8.28L550.09 0L540.84 0L540.84-7.75L544.28-7.75L544.28-24.91L540.84-24.91L540.84-33.19L550.09-33.19L558.38-24.91ZM535.06-24.91L535.06-7.75L538.66-7.75L538.66 0L529.38 0L521.09-8.28L521.09-24.91L529.38-33.19L538.66-33.19L538.66-24.91L535.06-24.91ZM584.59-8.28L584.59 0L572.34 0L564.59-7.75L564.59-45.84L578.41-45.84L578.41-8.28L584.59-8.28ZM625.13-24.91L625.13-8.28L616.84 0L607.59 0L607.59-7.75L611.03-7.75L611.03-24.91L607.59-24.91L607.59-33.19L616.84-33.19L625.13-24.91ZM601.81-24.91L601.81-7.75L605.41-7.75L605.41 0L596.13 0L587.84-8.28L587.84-24.91L596.13-33.19L605.41-33.19L605.41-24.91L601.81-24.91ZM653.25-16.84L653.25-24.91L647.38-24.91L647.38-28.53L652-33.19L660.38-33.19L667.09-25.44L667.09-16.84L653.25-16.84ZM645.16 0L631.34 0L631.34-33.19L645.16-33.19L645.16 0ZM671.09-25.75L678.56-33.19L684.09-33.19L684.09-21.47L699.84-21.47L707.03-14.22L707.03-7.75L699.31 0L693.22 0L693.22-12.53L678.28-12.53L671.09-19.44L671.09-25.75ZM684.91-9.50L684.91-6.09L691.03-6.09L691.03 0L676.81-0.03L671.06-6.84L671.06-9.50L684.91-9.50ZM693.22-24.50L693.22-27.09L686.28-27.09L686.28-33.19L700.97-33.19L705.91-28.25L705.91-24.50L693.22-24.50ZM712.44 0L712.44-45.84L726.25-45.84L726.25 0L712.44 0ZM734.53 0L734.53-24.91L728.44-24.91L728.44-29.09L732.50-33.19L740.06-33.19L748.38-24.91L748.38 0L734.53 0ZM760.94-37.63L760.94-3.88L755.81-3.88L755.81 4.44L766.47 4.44L774.50-3.88L774.50-37.63L766.47-45.91L755.81-45.91L755.81-37.63L760.94-37.63Z" fill="url(#editing-rainbow-gradient)"></path></g></g><style>text {
  font-size: 64px;
  font-family: Arial Black;
  dominant-baseline: central;
  text-anchor: middle;
}</style></svg>