<svg width="1010px" height="123.2px" xmlns="http://www.w3.org/2000/svg" viewBox="-255 13.399999999999999 1010 123.2" style="background: none;" preserveAspectRatio="xMidYMid"><defs><linearGradient id="editing-rainbow-gradient" x1="0" x2="1" y1="0.5" y2="0.5" gradientUnits="objectBoundingBox"><stop offset="0.00" stop-color="#f00"></stop><stop offset="0.17" stop-color="#f90"></stop><stop offset="0.34" stop-color="#ff4"></stop><stop offset="0.51" stop-color="#9f0"></stop><stop offset="0.68" stop-color="#09f"></stop><stop offset="0.85" stop-color="#00f"></stop><stop offset="1.00" stop-color="#9900ff"></stop></linearGradient><filter id="editing-rainbow" x="-100%" y="-100%" width="300%" height="300%"><feMorphology operator="dilate" radius="1,2" in="SourceGraphic" result="dilate"></feMorphology><feColorMatrix in="dilate" result="color" type="matrix" values="0.7 0 0 0 0  0 0.7 0 0 0  0 0 0.7 0 0  0 0 0 1 0"></feColorMatrix><feOffset dy="2" result="offset"></feOffset><feGaussianBlur stdDeviation="3"></feGaussianBlur><feOffset dy="3"></feOffset><feColorMatrix result="blur" type="matrix" values="0.7 0 0 0 0  0 0.7 0 0 0  0 0 0.7 0 0  0 0 0 1 0"></feColorMatrix><feMerge><feMergeNode in="blur"></feMergeNode><feMergeNode in="offset"></feMergeNode><feMergeNode in="SourceGraphic"></feMergeNode></feMerge></filter></defs><g filter="url(#editing-rainbow)"><g transform="translate(-114.76503372192383, 108.44000244140625)"><path d="M41.65 0L41.65 0L23.10 0L23.10 0Q13.60 0 9.01-3.80L9.01-3.80L9.01-3.80Q4.41-7.60 4.41-15.50L4.41-15.50L4.41-39.14L4.41-39.14Q4.41-47.04 9.01-50.88L9.01-50.88L9.01-50.88Q13.60-54.72 23.10-54.72L23.10-54.72L41.65-54.72L41.65-54.72Q43.09-54.72 43.74-54.07L43.74-54.07L43.74-54.07Q44.38-53.43 44.38-51.98L44.38-51.98L44.38-42.79L44.38-42.79Q44.38-41.34 43.74-40.70L43.74-40.70L43.74-40.70Q43.09-40.05 41.65-40.05L41.65-40.05L26.37-40.05L26.37-40.05Q24.02-40.05 22.88-39.10L22.88-39.10L22.88-39.10Q21.74-38.15 21.74-36.25L21.74-36.25L21.74-18.16L21.74-18.16Q21.74-16.26 22.88-15.39L22.88-15.39L22.88-15.39Q24.02-14.52 26.37-14.52L26.37-14.52L41.65-14.52L41.65-14.52Q43.09-14.52 43.74-13.87L43.74-13.87L43.74-13.87Q44.38-13.22 44.38-11.78L44.38-11.78L44.38-2.74L44.38-2.74Q44.38-1.29 43.74-0.65L43.74-0.65L43.74-0.65Q43.09 0 41.65 0ZM99.33-40.28L99.33-14.36L99.33-14.36Q99.33-10.87 98.31-8.02L98.31-8.02L98.31-8.02Q97.28-5.17 94.66-3.15L94.66-3.15L94.66-3.15Q92.04-1.14 87.44 0L87.44 0L87.44 0Q82.84 1.14 75.77 1.14L75.77 1.14L75.77 1.14Q68.70 1.14 64.07 0L64.07 0L64.07 0Q59.43-1.14 56.81-3.15L56.81-3.15L56.81-3.15Q54.19-5.17 53.16-8.02L53.16-8.02L53.16-8.02Q52.14-10.87 52.14-14.36L52.14-14.36L52.14-40.28L52.14-40.28Q52.14-43.78 53.16-46.63L53.16-46.63L53.16-46.63Q54.19-49.48 56.81-51.53L56.81-51.53L56.81-51.53Q59.43-53.58 64.07-54.72L64.07-54.72L64.07-54.72Q68.70-55.86 75.77-55.86L75.77-55.86L75.77-55.86Q82.84-55.86 87.44-54.72L87.44-54.72L87.44-54.72Q92.04-53.58 94.66-51.53L94.66-51.53L94.66-51.53Q97.28-49.48 98.31-46.63L98.31-46.63L98.31-46.63Q99.33-43.78 99.33-40.28L99.33-40.28ZM69.39-37.54L69.39-17.10L69.39-17.10Q69.39-15.58 70.53-14.55L70.53-14.55L70.53-14.55Q71.67-13.53 75.77-13.53L75.77-13.53L75.77-13.53Q79.88-13.53 81.02-14.55L81.02-14.55L81.02-14.55Q82.16-15.58 82.16-17.10L82.16-17.10L82.16-37.54L82.16-37.54Q82.16-38.99 81.02-40.01L81.02-40.01L81.02-40.01Q79.88-41.04 75.77-41.04L75.77-41.04L75.77-41.04Q71.67-41.04 70.53-40.01L70.53-40.01L70.53-40.01Q69.39-38.99 69.39-37.54L69.39-37.54ZM150.40 0L150.40 0L111.72 0L111.72 0Q110.28 0 109.63-0.65L109.63-0.65L109.63-0.65Q108.98-1.29 108.98-2.74L108.98-2.74L108.98-51.98L108.98-51.98Q108.98-53.43 109.63-54.07L109.63-54.07L109.63-54.07Q110.28-54.72 111.72-54.72L111.72-54.72L123.50-54.72L123.50-54.72Q124.94-54.72 125.59-54.07L125.59-54.07L125.59-54.07Q126.24-53.43 126.24-51.98L126.24-51.98L126.24-14.36L136.65-14.36L136.65-26.68L136.65-26.68Q136.65-28.12 137.29-28.77L137.29-28.77L137.29-28.77Q137.94-29.41 139.38-29.41L139.38-29.41L150.40-29.41L150.40-29.41Q151.85-29.41 152.49-28.77L152.49-28.77L152.49-28.77Q153.14-28.12 153.14-26.68L153.14-26.68L153.14-2.74L153.14-2.74Q153.14-1.29 152.49-0.65L152.49-0.65L152.49-0.65Q151.85 0 150.40 0ZM208.16-40.28L208.16-14.36L208.16-14.36Q208.16-10.87 207.14-8.02L207.14-8.02L207.14-8.02Q206.11-5.17 203.49-3.15L203.49-3.15L203.49-3.15Q200.87-1.14 196.27 0L196.27 0L196.27 0Q191.67 1.14 184.60 1.14L184.60 1.14L184.60 1.14Q177.54 1.14 172.90 0L172.90 0L172.90 0Q168.26-1.14 165.64-3.15L165.64-3.15L165.64-3.15Q163.02-5.17 161.99-8.02L161.99-8.02L161.99-8.02Q160.97-10.87 160.97-14.36L160.97-14.36L160.97-40.28L160.97-40.28Q160.97-43.78 161.99-46.63L161.99-46.63L161.99-46.63Q163.02-49.48 165.64-51.53L165.64-51.53L165.64-51.53Q168.26-53.58 172.90-54.72L172.90-54.72L172.90-54.72Q177.54-55.86 184.60-55.86L184.60-55.86L184.60-55.86Q191.67-55.86 196.27-54.72L196.27-54.72L196.27-54.72Q200.87-53.58 203.49-51.53L203.49-51.53L203.49-51.53Q206.11-49.48 207.14-46.63L207.14-46.63L207.14-46.63Q208.16-43.78 208.16-40.28L208.16-40.28ZM178.22-37.54L178.22-17.10L178.22-17.10Q178.22-15.58 179.36-14.55L179.36-14.55L179.36-14.55Q180.50-13.53 184.60-13.53L184.60-13.53L184.60-13.53Q188.71-13.53 189.85-14.55L189.85-14.55L189.85-14.55Q190.99-15.58 190.99-17.10L190.99-17.10L190.99-37.54L190.99-37.54Q190.99-38.99 189.85-40.01L189.85-40.01L189.85-40.01Q188.71-41.04 184.60-41.04L184.60-41.04L184.60-41.04Q180.50-41.04 179.36-40.01L179.36-40.01L179.36-40.01Q178.22-38.99 178.22-37.54L178.22-37.54ZM240.69-41.04L234.99-41.04L234.99-31.31L240.69-31.31L240.69-31.31Q242.67-31.31 243.35-32.34L243.35-32.34L243.35-32.34Q244.04-33.36 244.04-34.88L244.04-34.88L244.04-37.47L244.04-37.47Q244.04-38.99 243.35-40.01L243.35-40.01L243.35-40.01Q242.67-41.04 240.69-41.04L240.69-41.04ZM232.26 0L232.26 0L220.55 0L220.55 0Q219.11 0 218.46-0.65L218.46-0.65L218.46-0.65Q217.82-1.29 217.82-2.74L217.82-2.74L217.82-51.98L217.82-51.98Q217.82-53.43 218.46-54.07L218.46-54.07L218.46-54.07Q219.11-54.72 220.55-54.72L220.55-54.72L245.86-54.72L245.86-54.72Q254.37-54.72 257.60-51.19L257.60-51.19L257.60-51.19Q260.83-47.65 260.83-42.03L260.83-42.03L260.83-38.53L260.83-38.53Q260.83-35.34 259.88-33.10L259.88-33.10L259.88-33.10Q258.93-30.86 256.58-29.87L256.58-29.87L256.58-29.87Q260.68-29.41 263.23-26.52L263.23-26.52L263.23-26.52Q265.77-23.64 265.77-18.85L265.77-18.85L265.77-2.74L265.77-2.74Q265.77-1.29 265.13-0.65L265.13-0.65L265.13-0.65Q264.48 0 263.04 0L263.04 0L251.26 0L251.26 0Q249.81 0 249.17-0.65L249.17-0.65L249.17-0.65Q248.52-1.29 248.52-2.74L248.52-2.74L248.52-14.36L248.52-14.36Q248.52-16.04 247.87-16.83L247.87-16.83L247.87-16.83Q247.23-17.63 245.63-17.63L245.63-17.63L234.99-17.63L234.99-2.74L234.99-2.74Q234.99-1.29 234.35-0.65L234.35-0.65L234.35-0.65Q233.70 0 232.26 0ZM316.77 0L316.77 0L292.75 0L292.75 0Q291.31 0 290.66-0.65L290.66-0.65L290.66-0.65Q290.02-1.29 290.02-2.74L290.02-2.74L290.02-11.63L290.02-11.63Q290.02-13.07 290.66-13.72L290.66-13.72L290.66-13.72Q291.31-14.36 292.75-14.36L292.75-14.36L313.20-14.36L313.20-14.36Q314.18-14.36 314.68-15.01L314.68-15.01L314.68-15.01Q315.17-15.66 315.17-16.57L315.17-16.57L315.17-16.57Q315.17-17.86 314.68-18.47L314.68-18.47L314.68-18.47Q314.18-19.08 313.20-19.15L313.20-19.15L301.80-20.75L301.80-20.75Q296.48-21.51 293.25-24.24L293.25-24.24L293.25-24.24Q290.02-26.98 290.02-33.36L290.02-33.36L290.02-41.34L290.02-41.34Q290.02-47.80 294.20-51.26L294.20-51.26L294.20-51.26Q298.38-54.72 305.75-54.72L305.75-54.72L327.03-54.72L327.03-54.72Q328.47-54.72 329.12-54.07L329.12-54.07L329.12-54.07Q329.76-53.43 329.76-51.98L329.76-51.98L329.76-42.94L329.76-42.94Q329.76-41.50 329.12-40.85L329.12-40.85L329.12-40.85Q328.47-40.20 327.03-40.20L327.03-40.20L309.32-40.20L309.32-40.20Q308.33-40.20 307.80-39.56L307.80-39.56L307.80-39.56Q307.27-38.91 307.27-37.92L307.27-37.92L307.27-37.92Q307.27-36.94 307.80-36.25L307.80-36.25L307.80-36.25Q308.33-35.57 309.32-35.49L309.32-35.49L320.64-33.97L320.64-33.97Q325.96-33.21 329.23-30.48L329.23-30.48L329.23-30.48Q332.50-27.74 332.50-21.36L332.50-21.36L332.50-13.38L332.50-13.38Q332.50-6.92 328.28-3.46L328.28-3.46L328.28-3.46Q324.06 0 316.77 0ZM366.17 0L366.17 0L342.15 0L342.15 0Q340.71 0 340.06-0.65L340.06-0.65L340.06-0.65Q339.42-1.29 339.42-2.74L339.42-2.74L339.42-11.63L339.42-11.63Q339.42-13.07 340.06-13.72L340.06-13.72L340.06-13.72Q340.71-14.36 342.15-14.36L342.15-14.36L362.60-14.36L362.60-14.36Q363.58-14.36 364.08-15.01L364.08-15.01L364.08-15.01Q364.57-15.66 364.57-16.57L364.57-16.57L364.57-16.57Q364.57-17.86 364.08-18.47L364.08-18.47L364.08-18.47Q363.58-19.08 362.60-19.15L362.60-19.15L351.20-20.75L351.20-20.75Q345.88-21.51 342.65-24.24L342.65-24.24L342.65-24.24Q339.42-26.98 339.42-33.36L339.42-33.36L339.42-41.34L339.42-41.34Q339.42-47.80 343.60-51.26L343.60-51.26L343.60-51.26Q347.78-54.72 355.15-54.72L355.15-54.72L376.43-54.72L376.43-54.72Q377.87-54.72 378.52-54.07L378.52-54.07L378.52-54.07Q379.16-53.43 379.16-51.98L379.16-51.98L379.16-42.94L379.16-42.94Q379.16-41.50 378.52-40.85L378.52-40.85L378.52-40.85Q377.87-40.20 376.43-40.20L376.43-40.20L358.72-40.20L358.72-40.20Q357.73-40.20 357.20-39.56L357.20-39.56L357.20-39.56Q356.67-38.91 356.67-37.92L356.67-37.92L356.67-37.92Q356.67-36.94 357.20-36.25L357.20-36.25L357.20-36.25Q357.73-35.57 358.72-35.49L358.72-35.49L370.04-33.97L370.04-33.97Q375.36-33.21 378.63-30.48L378.63-30.48L378.63-30.48Q381.90-27.74 381.90-21.36L381.90-21.36L381.90-13.38L381.90-13.38Q381.90-6.92 377.68-3.46L377.68-3.46L377.68-3.46Q373.46 0 366.17 0ZM404.70 0L404.70 0L392.92 0L392.92 0Q391.48 0 390.83-0.65L390.83-0.65L390.83-0.65Q390.18-1.29 390.18-2.74L390.18-2.74L390.18-51.98L390.18-51.98Q390.18-53.43 390.83-54.07L390.83-54.07L390.83-54.07Q391.48-54.72 392.92-54.72L392.92-54.72L404.70-54.72L404.70-54.72Q406.14-54.72 406.79-54.07L406.79-54.07L406.79-54.07Q407.44-53.43 407.44-51.98L407.44-51.98L407.44-35.49L420.13-35.49L420.13-51.98L420.13-51.98Q420.13-53.43 420.77-54.07L420.77-54.07L420.77-54.07Q421.42-54.72 422.86-54.72L422.86-54.72L434.64-54.72L434.64-54.72Q436.09-54.72 436.73-54.07L436.73-54.07L436.73-54.07Q437.38-53.43 437.38-51.98L437.38-51.98L437.38-2.74L437.38-2.74Q437.38-1.29 436.73-0.65L436.73-0.65L436.73-0.65Q436.09 0 434.64 0L434.64 0L422.86 0L422.86 0Q421.42 0 420.77-0.65L420.77-0.65L420.77-0.65Q420.13-1.29 420.13-2.74L420.13-2.74L420.13-19.61L407.44-19.61L407.44-2.74L407.44-2.74Q407.44-1.29 406.79-0.65L406.79-0.65L406.79-0.65Q406.14 0 404.70 0ZM485.87-19.53L465.50-19.53L465.50-19.53Q464.06-19.53 463.41-20.18L463.41-20.18L463.41-20.18Q462.76-20.82 462.76-22.27L462.76-22.27L462.76-32.45L462.76-32.45Q462.76-33.90 463.41-34.54L463.41-34.54L463.41-34.54Q464.06-35.19 465.50-35.19L465.50-35.19L485.87-35.19L485.87-35.19Q487.31-35.19 487.96-34.54L487.96-34.54L487.96-34.54Q488.60-33.90 488.60-32.45L488.60-32.45L488.60-22.27L488.60-22.27Q488.60-20.82 487.96-20.18L487.96-20.18L487.96-20.18Q487.31-19.53 485.87-19.53L485.87-19.53ZM535.19 6.08L535.19 6.08L531.09 6.08L531.09 6.08Q520.37 6.08 516.38 1.75L516.38 1.75L516.38 1.75Q512.39-2.58 512.39-9.42L512.39-9.42L512.39-45.22L512.39-45.22Q512.39-52.14 516.38-56.47L516.38-56.47L516.38-56.47Q520.37-60.80 531.09-60.80L531.09-60.80L535.19-60.80L535.19-60.80Q536.64-60.80 537.28-60.15L537.28-60.15L537.28-60.15Q537.93-59.51 537.93-58.06L537.93-58.06L537.93-48.87L537.93-48.87Q537.93-47.42 537.28-46.78L537.28-46.78L537.28-46.78Q536.64-46.13 535.19-46.13L535.19-46.13L532.84-46.13L532.84-46.13Q531.01-46.13 530.37-45.22L530.37-45.22L530.37-45.22Q529.72-44.31 529.72-42.33L529.72-42.33L529.72-12.24L529.72-12.24Q529.72-10.26 530.37-9.35L530.37-9.35L530.37-9.35Q531.01-8.44 532.84-8.44L532.84-8.44L535.19-8.44L535.19-8.44Q536.64-8.44 537.28-7.79L537.28-7.79L537.28-7.79Q537.93-7.14 537.93-5.70L537.93-5.70L537.93 3.34L537.93 3.34Q537.93 4.79 537.28 5.43L537.28 5.43L537.28 5.43Q536.64 6.08 535.19 6.08ZM583.00 0L583.00 0L564.45 0L564.45 0Q554.95 0 550.35-3.80L550.35-3.80L550.35-3.80Q545.76-7.60 545.76-15.50L545.76-15.50L545.76-39.14L545.76-39.14Q545.76-47.04 550.35-50.88L550.35-50.88L550.35-50.88Q554.95-54.72 564.45-54.72L564.45-54.72L583.00-54.72L583.00-54.72Q584.44-54.72 585.09-54.07L585.09-54.07L585.09-54.07Q585.73-53.43 585.73-51.98L585.73-51.98L585.73-42.79L585.73-42.79Q585.73-41.34 585.09-40.70L585.09-40.70L585.09-40.70Q584.44-40.05 583.00-40.05L583.00-40.05L567.72-40.05L567.72-40.05Q565.36-40.05 564.22-39.10L564.22-39.10L564.22-39.10Q563.08-38.15 563.08-36.25L563.08-36.25L563.08-18.16L563.08-18.16Q563.08-16.26 564.22-15.39L564.22-15.39L564.22-15.39Q565.36-14.52 567.72-14.52L567.72-14.52L583.00-14.52L583.00-14.52Q584.44-14.52 585.09-13.87L585.09-13.87L585.09-13.87Q585.73-13.22 585.73-11.78L585.73-11.78L585.73-2.74L585.73-2.74Q585.73-1.29 585.09-0.65L585.09-0.65L585.09-0.65Q584.44 0 583.00 0ZM619.70 0L619.70 0L595.69 0L595.69 0Q594.24 0 593.60-0.65L593.60-0.65L593.60-0.65Q592.95-1.29 592.95-2.74L592.95-2.74L592.95-11.63L592.95-11.63Q592.95-13.07 593.60-13.72L593.60-13.72L593.60-13.72Q594.24-14.36 595.69-14.36L595.69-14.36L616.13-14.36L616.13-14.36Q617.12-14.36 617.61-15.01L617.61-15.01L617.61-15.01Q618.11-15.66 618.11-16.57L618.11-16.57L618.11-16.57Q618.11-17.86 617.61-18.47L617.61-18.47L617.61-18.47Q617.12-19.08 616.13-19.15L616.13-19.15L604.73-20.75L604.73-20.75Q599.41-21.51 596.18-24.24L596.18-24.24L596.18-24.24Q592.95-26.98 592.95-33.36L592.95-33.36L592.95-41.34L592.95-41.34Q592.95-47.80 597.13-51.26L597.13-51.26L597.13-51.26Q601.31-54.72 608.68-54.72L608.68-54.72L629.96-54.72L629.96-54.72Q631.41-54.72 632.05-54.07L632.05-54.07L632.05-54.07Q632.70-53.43 632.70-51.98L632.70-51.98L632.70-42.94L632.70-42.94Q632.70-41.50 632.05-40.85L632.05-40.85L632.05-40.85Q631.41-40.20 629.96-40.20L629.96-40.20L612.26-40.20L612.26-40.20Q611.27-40.20 610.74-39.56L610.74-39.56L610.74-39.56Q610.20-38.91 610.20-37.92L610.20-37.92L610.20-37.92Q610.20-36.94 610.74-36.25L610.74-36.25L610.74-36.25Q611.27-35.57 612.26-35.49L612.26-35.49L623.58-33.97L623.58-33.97Q628.90-33.21 632.17-30.48L632.17-30.48L632.17-30.48Q635.44-27.74 635.44-21.36L635.44-21.36L635.44-13.38L635.44-13.38Q635.44-6.92 631.22-3.46L631.22-3.46L631.22-3.46Q627 0 619.70 0ZM658.24 0L658.24 0L646.46 0L646.46 0Q645.01 0 644.37-0.65L644.37-0.65L644.37-0.65Q643.72-1.29 643.72-2.74L643.72-2.74L643.72-51.98L643.72-51.98Q643.72-53.43 644.37-54.07L644.37-54.07L644.37-54.07Q645.01-54.72 646.46-54.72L646.46-54.72L658.24-54.72L658.24-54.72Q659.68-54.72 660.33-54.07L660.33-54.07L660.33-54.07Q660.97-53.43 660.97-51.98L660.97-51.98L660.97-35.49L673.66-35.49L673.66-51.98L673.66-51.98Q673.66-53.43 674.31-54.07L674.31-54.07L674.31-54.07Q674.96-54.72 676.40-54.72L676.40-54.72L688.18-54.72L688.18-54.72Q689.62-54.72 690.27-54.07L690.27-54.07L690.27-54.07Q690.92-53.43 690.92-51.98L690.92-51.98L690.92-2.74L690.92-2.74Q690.92-1.29 690.27-0.65L690.27-0.65L690.27-0.65Q689.62 0 688.18 0L688.18 0L676.40 0L676.40 0Q674.96 0 674.31-0.65L674.31-0.65L674.31-0.65Q673.66-1.29 673.66-2.74L673.66-2.74L673.66-19.61L660.97-19.61L660.97-2.74L660.97-2.74Q660.97-1.29 660.33-0.65L660.33-0.65L660.33-0.65Q659.68 0 658.24 0ZM706.42 6.08L706.42 6.08L702.32 6.08L702.32 6.08Q700.87 6.08 700.23 5.43L700.23 5.43L700.23 5.43Q699.58 4.79 699.58 3.34L699.58 3.34L699.58-5.70L699.58-5.70Q699.58-7.14 700.23-7.79L700.23-7.79L700.23-7.79Q700.87-8.44 702.32-8.44L702.32-8.44L704.67-8.44L704.67-8.44Q706.50-8.44 707.14-9.35L707.14-9.35L707.14-9.35Q707.79-10.26 707.79-12.24L707.79-12.24L707.79-42.33L707.79-42.33Q707.79-44.31 707.14-45.22L707.14-45.22L707.14-45.22Q706.50-46.13 704.67-46.13L704.67-46.13L702.32-46.13L702.32-46.13Q700.87-46.13 700.23-46.78L700.23-46.78L700.23-46.78Q699.58-47.42 699.58-48.87L699.58-48.87L699.58-58.06L699.58-58.06Q699.58-59.51 700.23-60.15L700.23-60.15L700.23-60.15Q700.87-60.80 702.32-60.80L702.32-60.80L706.42-60.80L706.42-60.80Q717.14-60.80 721.13-56.47L721.13-56.47L721.13-56.47Q725.12-52.14 725.12-45.22L725.12-45.22L725.12-9.42L725.12-9.42Q725.12-2.58 721.13 1.75L721.13 1.75L721.13 1.75Q717.14 6.08 706.42 6.08Z" fill="url(#editing-rainbow-gradient)"></path></g></g><style>text {
  font-size: 64px;
  font-family: Arial Black;
  dominant-baseline: central;
  text-anchor: middle;
}</style></svg>